0
SECTION
2
HEADER
9
$INSUNITS
70
4
9
$ACADVER
1
AC1014
9
$HANDSEED
5
FFFF
0
ENDSEC
0
SECTION
2
TABLES
0
TABLE
2
VPORT
5
8
100
AcDbSymbolTable
0
ENDTAB
0
TABLE
2
LTYPE
5
5
100
AcDbSymbolTable
0
LTYPE
5
14
100
AcDbSymbolTableRecord
100
AcDbLinetypeTableRecord
2
BYBLOCK
70
0
0
LTYPE
5
15
100
AcDbSymbolTableRecord
100
AcDbLinetypeTableRecord
2
BYLAYER
70
0
0
ENDTAB
0
TABLE
2
LAYER
5
2
100
AcDbSymbolTable
70
2
0
LAYER
5
50
100
AcDbSymbolTableRecord
100
AcDbLayerTableRecord
2
0
70
0
6
CONTINUOUS
0
ENDTAB
0
TABLE
2
STYLE
5
3
100
AcDbSymbolTable
70
1
0
STYLE
5
11
100
AcDbSymbolTableRecord
100
AcDbTextStyleTableRecord
2
STANDARD
70
0
0
ENDTAB
0
TABLE
2
VIEW
5
6
100
AcDbSymbolTable
70
0
0
ENDTAB
0
TABLE
2
UCS
5
7
100
AcDbSymbolTable
70
0
0
ENDTAB
0
TABLE
2
APPID
5
9
100
AcDbSymbolTable
70
2
0
APPID
5
12
100
AcDbSymbolTableRecord
100
AcDbRegAppTableRecord
2
ACAD
70
0
0
ENDTAB
0
TABLE
2
DIMSTYLE
5
A
100
AcDbSymbolTable
70
1
0
ENDTAB
0
TABLE
2
BLOCK_RECORD
5
1
100
AcDbSymbolTable
70
1
0
BLOCK_RECORD
5
1F
100
AcDbSymbolTableRecord
100
AcDbBlockTableRecord
2
*MODEL_SPACE
0
BLOCK_RECORD
5
1B
100
AcDbSymbolTableRecord
100
AcDbBlockTableRecord
2
*PAPER_SPACE
0
ENDTAB
0
ENDSEC
0
SECTION
2
BLOCKS
0
BLOCK
5
20
100
AcDbEntity
100
AcDbBlockBegin
2
*MODEL_SPACE
0
ENDBLK
5
21
100
AcDbEntity
100
AcDbBlockEnd
0
BLOCK
5
1C
100
AcDbEntity
100
AcDbBlockBegin
2
*PAPER_SPACE
0
ENDBLK
5
1D
100
AcDbEntity
100
AcDbBlockEnd
0
ENDSEC
0
SECTION
2
ENTITIES
0
LWPOLYLINE
5
100
100
AcDbEntity
8
0
100
AcDbPolyline
90
4
70
1
43
0.0
10
31.67599506194405
20
4.6289814444078647
42
0.99999999999999989
10
31.67599506194405
20
49.279532627024153
10
25.629856296845055
20
49.279532627024153
42
0.99999961221184852
10
25.629873615298017
20
4.6289814444011537
0
LWPOLYLINE
5
101
100
AcDbEntity
8
0
100
AcDbPolyline
90
4
70
1
43
0.0
10
115.67599506194405
20
4.6289814444078647
42
0.99999999999999989
10
115.67599506194405
20
49.279532627024153
10
109.62985629684508
20
49.279532627024153
42
0.99999961221184852
10
109.62987361529801
20
4.6289814444011537
0
LWPOLYLINE
5
102
100
AcDbEntity
8
0
100
AcDbPolyline
90
4
70
1
43
0.0
10
200.67599506194404
20
4.6289814444078647
42
0.99999972655256397
10
200.67600727268544
20
49.279532627024153
10
194.62987361529801
20
49.279532627024153
42
0.99999999999999989
10
194.62987361529801
20
4.6289814444011537
0
LWPOLYLINE
5
103
100
AcDbEntity
8
0
100
AcDbPolyline
90
4
70
1
43
0.0
10
284.67599506194404
20
4.6289814444078647
42
0.99999972655256397
10
284.67600727268541
20
49.279532627024153
10
278.62985629684505
20
49.279532627024153
42
0.99999961221184852
10
278.62987361529798
20
4.6289814444011537
0
CIRCLE
5
104
100
AcDbEntity
8
0
100
AcDbCircle
10
0
20
0
30
0
40
5.7500000000000009
210
0
220
0
230
1
0
CIRCLE
5
105
100
AcDbEntity
8
0
100
AcDbCircle
10
317.278308927159
20
11.007278629045445
30
0
40
5.7500000000000071
210
-0
220
0
230
1
0
CIRCLE
5
106
100
AcDbEntity
8
0
100
AcDbCircle
10
155.06429906904282
20
4.9631425568396779
30
0
40
5.6249999999999991
210
-0
220
0
230
1
0
CIRCLE
5
107
100
AcDbEntity
8
0
100
AcDbCircle
10
54.087966592663541
20
58.1305054424028
30
0
40
5.625
210
0
220
0
230
1
0
CIRCLE
5
108
100
AcDbEntity
8
0
100
AcDbCircle
10
255.8152959282437
20
58.1305054424028
30
0
40
5.6249999999999991
210
0
220
0
230
1
0
LWPOLYLINE
5
109
100
AcDbEntity
8
0
100
AcDbPolyline
90
46
70
1
43
0.0
10
39.000957269245184
20
-4.5301576915047015
42
0.16729705618730539
10
56.828286651622918
20
6.6494381534459182
42
-0.1634388968527416
10
62.197218521834913
20
10.072769658983091
42
-0.1249221726324857
10
79.253126476620366
20
9.9883813004138027
42
-0.16043206113353992
10
84.514671682184087
20
6.6035795552642673
42
0.22619610406951215
10
109.62987361530912
20
-5.3710185555988454
10
115.67599506194405
20
-5.3710185555921353
42
0.12448240868172872
10
131.04237014918181
20
-1.4851163528159765
42
-0.15132106823952848
10
136.84754898882045
20
-0.33842836578131863
42
-0.030563503254111175
10
140.26631682620425
20
-0.91280855114047765
42
-0.15158428923744474
10
145.38499779401184
20
-3.9012103144747092
42
0.43904411056344095
10
164.70973968314254
20
-3.9380427777026412
42
-0.1541551410582733
10
169.93786631047448
20
-0.94737095989442222
42
-0.030573821589596616
10
173.68328911735065
20
-0.37144743052564932
42
-0.14717404993961408
10
179.32965734184609
20
-1.520764018527565
42
0.12389223180585587
10
194.62987361529801
20
-5.3710185555921264
10
200.67599506195518
20
-5.3710185555921353
42
0.2294236452919875
10
226.03906730267749
20
6.9133486589642326
42
-0.17163073689939887
10
231.68165701739929
20
10.467767330995656
42
-0.12301306494780884
10
248.2745677362017
20
10.092516735404597
42
-0.15795713932253477
10
253.4284462162162
20
6.7104555374023844
42
0.22731274414327496
10
278.6298736203583
20
-5.371018555598849
10
284.67599506195518
20
-5.3710185555921353
42
0.14389961597419745
10
302.16528580315708
20
-0.23118302736480204
42
-0.071023335139268229
10
304.73479474115447
20
0.94682973713706065
42
-0.14503276285434499
10
307.68932904981421
20
0.94682973713581087
42
-0.069109495516369815
10
310.1946148701042
20
-0.19021120153922766
42
0.79932968974587049
10
328.48697921407739
20
18.073268326119166
10
312.02115400811351
20
44.192752453319898
42
0.16479596744082439
10
295.91220798494584
20
57.263842338108233
10
260.37752446045937
20
70.437076687873713
42
0.088985901122423883
10
255.8152959282437
20
71.255505442402807
10
213.46582382762421
20
71.255505442402793
42
0.10286723476264563
10
209.4794852929347
20
70.426607071261245
10
164.51999269977119
20
50.884379204081512
42
-0.10286723476264355
10
160.53365416508169
20
50.055480832939935
10
149.48200088161582
20
50.055480832939935
42
-0.10129502428532715
10
145.55281997292039
20
50.859746094119807
10
99.701486845584043
20
70.451240181222929
42
0.10129502428533034
10
95.772305936888642
20
71.255505442402807
10
54.087966592663541
20
71.255505442402807
42
0.089924925386843588
10
49.479912133159573
20
70.419991155737009
10
14.280797017716786
20
57.221762754501157
42
0.25277359018151485
10
-5.9041575150660641
20
34.062584738044151
10
-12.925672088920631
20
2.9136748359585658
42
0.55317017367986909
10
3.0024724452105844
20
-12.90533452552669
0
ENDSEC
0
SECTION
2
OBJECTS
0
DICTIONARY
5
C
100
AcDbDictionary
3
ACAD_GROUP
350
D
3
ACAD_MLINESTYLE
350
17
0
DICTIONARY
5
D
100
AcDbDictionary
0
DICTIONARY
5
1A
330
C
100
AcDbDictionary
0
DICTIONARY
5
17
100
AcDbDictionary
0
ENDSEC
0
EOF
